/* XPM */
static char *xpm_[] = {
/* columns rows colors chars-per-pixel */
"32 32 173 2 ",
"   c #050500",
".  c #0B0200",
"X  c #000C00",
"o  c #130000",
"O  c #1C0000",
"+  c #001400",
"@  c #001900",
"#  c #240000",
"$  c #280000",
"%  c #3C0000",
"&  c #420000",
"*  c #1E7A00",
"=  c #2D6E02",
"-  c #2F6C0B",
";  c #336D07",
":  c #356C0D",
">  c #247401",
",  c #2B7400",
"<  c #247A00",
"1  c #2A7A00",
"2  c #267508",
"3  c #2E7108",
"4  c #327600",
"5  c #327804",
"6  c #36700A",
"7  c #42631D",
"8  c #405F23",
"9  c #456824",
"0  c #E73E07",
"q  c #EC3D06",
"w  c #E53F0C",
"e  c #EA3D0A",
"r  c #F63402",
"t  c #FA3605",
"y  c #F63904",
"u  c #FA3A04",
"i  c #F6360B",
"p  c #FA360B",
"a  c #F43A0B",
"s  c #FA390C",
"d  c #EF3711",
"f  c #ED3B11",
"g  c #F43612",
"h  c #FA3610",
"j  c #F63913",
"k  c #F83B15",
"l  c #B54F2A",
"z  c #BB4F2F",
"x  c #B64C25",
"c  c #B3532B",
"v  c #D3431E",
"b  c #DD421C",
"n  c #D34A1E",
"m  c #E74105",
"M  c #E94007",
"N  c #E7410C",
"B  c #EA400B",
"V  c #E24C0F",
"C  c #E64110",
"Z  c #EF4213",
"A  c #E44B11",
"S  c #E1411B",
"D  c #CA4B21",
"F  c #D64223",
"G  c #DA4424",
"H  c #D24821",
"J  c #DA4823",
"K  c #E14023",
"L  c #67BC29",
"P  c #6DBC2C",
"I  c #71BF26",
"U  c #73BD2C",
"Y  c #6DBE31",
"T  c #72BD35",
"R  c #71BB39",
"E  c #5FCF03",
"W  c #63C705",
"Q  c #6BC605",
"!  c #63CB03",
"~  c #6ACC06",
"^  c #64C70C",
"/  c #6BC60B",
"(  c #65CC0B",
")  c #6ACC0C",
"_  c #68D103",
"`  c #64D00B",
"'  c #69D00D",
"]  c #64C613",
"[  c #6AC615",
"{  c #65CB12",
"}  c #6ACA13",
"|  c #66C51D",
" . c #6CC51C",
".. c #66CB1A",
"X. c #6BCB1A",
"o. c #67C620",
"O. c #6BC424",
"+. c #66C921",
"@. c #69C826",
"#. c #6CC529",
"$. c #6DC928",
"%. c #71C325",
"&. c #72C22B",
"*. c #6DC232",
"=. c #6EC238",
"-. c #72C131",
";. c #78C332",
":. c #72C338",
">. c #7DB444",
",. c #7EB847",
"<. c #81AF42",
"1. c #83B049",
"2. c #FF8747",
"3. c #FF8A46",
"4. c #FF8549",
"5. c #FF8E4C",
"6. c #EF9A4B",
"7. c #FF9247",
"8. c #F89947",
"9. c #F4954C",
"0. c #FC944D",
"q. c #F5994E",
"w. c #F9984D",
"e. c #EF9750",
"r. c #E69B5C",
"t. c #EB9C5C",
"y. c #F49651",
"u. c #FC9552",
"i. c #F69953",
"p. c #FB9953",
"a. c #F79959",
"s. c #DF9D63",
"d. c #E39D65",
"f. c #EA9A63",
"g. c #E59D6A",
"h. c #E89F68",
"j. c #F19562",
"k. c #F19B60",
"l. c #D3A36C",
"z. c #D4A573",
"x. c #DEA474",
"c. c #E5A265",
"v. c #ADFF4C",
"b. c #B3FD4E",
"n. c #B9FD4E",
"m. c #AEFF53",
"M. c #AEFE5B",
"N. c #B3FE53",
"B. c #B9FE54",
"V. c #B2FD5C",
"C. c #BAFE5D",
"Z. c #BBFE5A",
"A. c #AEFE64",
"S. c #B2FE63",
"D. c #B5FF61",
"F. c #B6FE66",
"G. c #B3FC64",
"H. c #B9FC63",
"J. c #B5F46E",
"K. c #B9F66B",
"L. c #B6FD6A",
"P. c #B3FB6B",
"I. c #B8FE68",
"U. c #B5F572",
"Y. c #BAF772",
"T. c #BBF674",
"R. c #B9FB72",
"E. c #BBF77B",
"W. c #BBF57B",
"Q. c #BCF97A",
"!. c #C4E87C",
"~. c #BBF481",
"^. c #C6E98B",
/* pixels */
"v.v.N.B.n.n.N.N.N.b.n.n.b.N.N.N.N.N.B.n.N.N.N.N.N.N.B.B.b.N.N.N.",
"v.N.V.H.B.B.N.N.N.N.C.V.B.N.N.N.N.N.C.C.N.N.N.N.N.V.C.N.B.b.b.N.",
"N.V.4 4 H.N.N.N.N.V., , V.b.B.v.b.M., = C.N.m.m.V.V.4 4 V.N.B.B.",
"V.L.= , P.V.V.m.D.L., , Q.T.Y.K.Y.E.: ; R.V.m.V.V.G., , F.V.N.b.",
", , F.I., 1 V.D., , S.U.+ X X X X X X + - , V.N.4 , F.S., , V.N.",
", > V.V.< 1 F.J.: : E.!.o $ $ $ $ $ $ . 8 : W.Y.4 1 m.M., , V.m.",
"> 1 | { ] | < 6 X X X o x F G G b b b z o X X + T ..( ] 1 , A.M.",
", < O.{ { | , 7 o # # % S t q M q y t S % # $ o 1.#.( { , , A.m.",
"H.L.> < [ &.+ . c n v b i a 2.0.0.4.B f b F G z o +  .^ 1 , V.N.",
"N.D.> 1 [ U X O H y y t p e 0.6.6.0.C s t t t G $ X I ^ 1 , V.v.",
") X.< > ..-.X $ F i s s p e u.q.i.u.e p u u u v $ X U } > < X.) ",
"E { < 1 Y >.o & K h i i i Z 4.0.0.4.a t y y y b % o <.P 1 < { ( ",
"` ' } -.@ . l S a i a a j d Z N N Z a s a y a f b l o @ =...} ( ",
"W ( ~ P + O v s t t a a g k i y y r s i a a a s h v O + P { / ^ ",
"b.v.~ ;.X $ J r y t i s i i u u u r p p s a a i r G # X &.! v.N.",
"n.b./ U X # D m M q a s p p u r r s p p s a e B e D O X U / N.N.",
"b.B.b.T.X O f.0.5.4.e i a i i t p s p p s q 4.5.5.j.o X J.N.N.B.",
"B.N.V.~.X O s.q.u.3.V w C w e M e e w N 0 A 3.p.w.d.o X T.Z.N.Z.",
"N.M.< - X O r.0.0.u.7.5.u.u.7.7.0.5.u.u.5.0.p.w.w.g.o X Y.v.N.b.",
"M.A.< 3 + . x.k.p.w.q.9.i.p.8.8.8.q.i.i.e.i.p.a.f.z.  + R.m.m.v.",
"1 , A.P.= 9 . $ f.p.q.i.u.u.0.0.w.u.p.p.i.q.p.f.# . ^.U., < M.N.",
", 1 M.V.< - X o g.p.9.i.0.5.u.u.u.u.9.9.p.q.i.g.o X E.A.> , F.N.",
", ,  ./ } R X o g.w.9.q.u.p.p.y.p.u.p.p.w.8.q.g.o X T  .1 , G.C.",
", ,  .} ( O.@   l.d.c.r.y.p.y.i.p.w.w.y.r.c.d.z.  + &.[ 1 , H.Z.",
"V.S.1 < { { O.>.X o . O t.w.q.i.i.p.0.t.O . .   7 =  .[ 1 , H.N.",
"N.V.> < ] ! ' #.+ X X X l.h.g.g.g.d.f.l.X + + + - , } [ < 1 m.N.",
"( [ 1 > X.` W  ., ; R ,.X o o o o o O   >.*.L :., , ] { < <  .Q ",
"( ..< < | } ( X., , #.Y @ X X X X X X + *.{ { ..> , $.+.* * ^ ~ ",
"{ ^ ..o.1 1 { ] > , , , %.I -.Y *.-.P U 1 < ..| > , > < #...! E ",
"} { ( ] 1 < | @.> 5 , 1 / W ( { { ( ! ^ < < O.#.< , , < ..W ( ~ ",
"m.v.) ) ^ ..< < , > %./ ) ( v.v.v.v.~ ~ } O.< > > 1  .} ( ! m.m.",
"v.v./ ~ ! ( < > > 1 [ ~ ( ( v.N.N.b.~ W ( | < 2 > 1 / ! _ ~ m.V."
};
