/* XPM */
static char *_a23310542aa460785ad2b1005c218c3N1aJiD0zkyfRoT25[] = {
/* columns rows colors chars-per-pixel */
"32 32 170 2 ",
"   c #020201",
".  c #0B0000",
"X  c #000B00",
"o  c #02020A",
"O  c #130000",
"+  c #180000",
"@  c #001300",
"#  c #230000",
"$  c #1F7C00",
"%  c #276F00",
"&  c #2D6D02",
"*  c #2C6E0C",
"=  c #346D05",
"-  c #386F07",
";  c #336C0C",
":  c #247500",
">  c #2B7500",
",  c #247A00",
"<  c #2A7A00",
"1  c #2B740B",
"2  c #307400",
"3  c #327900",
"4  c #32710D",
"5  c #2C6713",
"6  c #356615",
"7  c #336C11",
"8  c #36641B",
"9  c #3C641E",
"0  c #357117",
"q  c #3A6224",
"w  c #3C6823",
"e  c #73490F",
"r  c #7D4B0D",
"t  c #7B510E",
"y  c #754D14",
"u  c #7B4E14",
"i  c #734D19",
"p  c #7A4E1C",
"a  c #6C521E",
"s  c #7B5113",
"d  c #75511C",
"f  c #7B521C",
"g  c #6D4E21",
"h  c #6E4E2A",
"j  c #734D24",
"k  c #724E29",
"l  c #7C4B23",
"z  c #6E5225",
"x  c #6B532A",
"c  c #665A2A",
"v  c #725324",
"b  c #7C5621",
"n  c #73532B",
"m  c #795229",
"M  c #694E31",
"N  c #6B5433",
"B  c #695A33",
"V  c #675139",
"C  c #6E563E",
"Z  c #426928",
"A  c #83500E",
"S  c #844B11",
"D  c #884D15",
"F  c #804E19",
"G  c #845017",
"H  c #6DBF2A",
"J  c #73BD27",
"K  c #73BD2B",
"L  c #6EB734",
"P  c #6DBA36",
"I  c #72BC36",
"U  c #75BA3B",
"Y  c #5ECC05",
"T  c #64C706",
"R  c #63CC05",
"E  c #69C905",
"W  c #63C60D",
"Q  c #6BC70E",
"!  c #65CC0B",
"~  c #6ACC0A",
"^  c #71C70C",
"/  c #65D302",
"(  c #68D007",
")  c #64D00A",
"_  c #68D00A",
"`  c #64C614",
"'  c #6AC516",
"]  c #65CB13",
"[  c #6BCA13",
"{  c #64C71B",
"}  c #6BC51C",
"|  c #65CB19",
" . c #6AC919",
".. c #67D014",
"X. c #66C626",
"o. c #6BC523",
"O. c #65CA22",
"+. c #69C925",
"@. c #6AC22D",
"#. c #70C826",
"$. c #71C22B",
"%. c #6EC333",
"&. c #75C238",
"*. c #6EB444",
"=. c #79B442",
"-. c #7CB847",
";. c #7CB54E",
":. c #74BA48",
">. c #7DB948",
",. c #81B745",
"<. c #83B748",
"1. c #80BA49",
"2. c #EC9756",
"3. c #E69C5F",
"4. c #EB9D5A",
"5. c #E5A05F",
"6. c #DE9D6D",
"7. c #D99E79",
"8. c #EA9D66",
"9. c #E29E69",
"0. c #DBA26E",
"q. c #DEA172",
"w. c #D7A17D",
"e. c #ADFE47",
"r. c #ADFF4C",
"t. c #B5FC47",
"y. c #B3FE4D",
"u. c #BAFF4C",
"i. c #AEFE53",
"p. c #ADFE5B",
"a. c #B4FE53",
"s. c #BAFD54",
"d. c #BAF65B",
"f. c #B4FD5B",
"g. c #B9FD5B",
"h. c #B6ED6D",
"j. c #B8EF6F",
"k. c #ADFE62",
"l. c #BDF764",
"z. c #B3FD64",
"x. c #B9FC64",
"c. c #BEF66E",
"v. c #BAF56B",
"b. c #B2FA6B",
"n. c #B3FF6B",
"m. c #BCFE69",
"M. c #BDF86A",
"N. c #B5ED72",
"B. c #BAF372",
"V. c #BEF273",
"C. c #BEF575",
"Z. c #BCF573",
"A. c #BAF873",
"S. c #BFF877",
"D. c #BDF874",
"F. c #BCF27A",
"G. c #BCF67A",
"H. c #BEF978",
"J. c #C2F66E",
"K. c #C1F376",
"L. c #C0F370",
"P. c #C1F972",
"I. c #C1F77D",
"U. c #BEEA8B",
"Y. c #BEED8A",
"T. c #B7F586",
"R. c #BBF482",
"E. c #C7EE84",
"W. c #C4ED85",
"Q. c #C2EC89",
/* pixels */
"y.y.y.a.d.g.y.y.a.a.a.s.a.i.g.a.a.f.a.s.u.y.t.y.a.a.s.a.y.y.s.g.",
"y.a.x.g.d.f.y.f.v.C.K.V.B.H.j.K.G.N.G.V.c.c.c.v.f.f.f.x.a.y.s.a.",
"y.f.: > x.a.u.d.@ X X X X X X X X X X X X X X @ v.z.< : f.e.a.a.",
"f.b.4 7 R.C.l.E.    . . . . . . . . . . . .   X Y.R.; ; G.M.y.a.",
"> & @ X X X X     . V n v v z z a z n n n V     X X X X X @ M.y.",
": 7 X   X X     . + h x z z v v z z v x n M + . .   X X   X D.a.",
": 5 X   =.>.X . 7.7.+ . . . . . . . . . . + 7.7.O X <.-.X X j.y.",
"< 7 X X K J @ O 9.8.# . . . . O . . . . . + 9.9.+ X @.@.X X S.a.",
"f.F.X X K J @ O 9.2.8.q.j m 9.9.p v k n n v G p . @ @.%.X X A.r.",
"y.v.@ @ ,.<.X O 0.4.4.5.u r 4.4.S f F p i F e m . X *.:.X @ b.r.",
"~ o.& w X X   . d r S A s s S S s s b d b i s x . X X @ w & o.~ ",
"R ] , & @ X X X c v p y t t u f s s d i d d j B X X   @ & < | ! ",
") ) ] @.4 0 P =.X . v s s t y d s s f l d v . X 8 0 6 = o.W ! ~ ",
"R ) R ] $ $ +.%.@   B n v d b d s y j n v B X X * : > < W _ ! Q ",
"a.r.E R ] { , : 4 Z   . . O g i y v . O .   q * 1 : +.W ~ ! r.r.",
"s.a.^ ~ T ' < < > = X X X X B z n c   X   @ = > > <  .! ~ Q r.i.",
"s.a.a.y.i.i.f.f.d.l.J.D.A.Y.  . .   W.S.B.v.m.g.M.f.i.i.r.y.a.f.",
"y.s.f.f.f.s.y.u.s.d.M.C.A.Y.X     X Y.Z.C.v.f.a.s.f.f.i.a.a.a.a.",
"a.f.3 > f.y.y.a.f.Z.@ @ X X   o       X X @ l.a.a.p.< < p.a.s.s.",
"i.z.> > x.f.a.r.p.T.X           o       o X D.y.p.k.> : k.f.a.t.",
"> > z.n.% > a.f.< ; X                 . o X L.a.> < x.z.> 2 f.s.",
"> : k.p.: < z.b.; q   . O O O . .   O . . X Q.S.3 : i.p.> 2 g.t.",
"> < ' ]  .X.> - X X   . w.6.l k k x v N     X @ K ] ~ ' > > z.f.",
"> : o.] ] | : = X     . 0.8.D F p F u v       @ I ] !  .: > z.a.",
"s.g.> :  .! ` U @     . d t u u s s d x . o   X 4 $ ] { < > x.t.",
"t.f.> > ` R ~ $.@   X . x v g n a d n C .   X @ * $ |  .: < i.y.",
"W | < , ../ E ' > Z X   . . . . . . . . o   ;.&.> , ] | < :  .T ",
") | $ $ | ! E [ : ; @   @ X X @ X @ X @ X @ $.' : < +.o., $ ] ) ",
") Y | X., $ ] ] , > 7 ; I %.H @.@.H $.I 4 > ' [ : > : < +.[ R Y ",
"E ! ) ` , , O.O.$ > > < | R R ! ~ ! ~ W < < ' } > > > : [ R ~ R ",
"y.e.~ ) ` +.$ , < : $. .] W r.y.i.i.T ~ Q { < : : : X.| ! E r.y.",
"y.y.E R R ] : : : < { ~ ] W r.a.a.p.! T ! ' > 1 , $ ] Y ~ ~ r.a."
};
