/* XPM */
static char *xpm_[] = {
/* columns rows colors chars-per-pixel */
"32 32 123 2 ",
"   c #257500",
".  c #2B7400",
"X  c #257A00",
"o  c #2B7A00",
"O  c #317600",
"+  c #317A00",
"@  c #5ECA09",
"#  c #67C701",
"$  c #63CC05",
"%  c #69CB06",
"&  c #62C709",
"*  c #6AC70C",
"=  c #64CB0D",
"-  c #69CC0C",
";  c #64D305",
":  c #62D00B",
">  c #68D00A",
",  c #64C615",
"<  c #69C515",
"1  c #66CA14",
"2  c #6ACA13",
"3  c #66C519",
"4  c #69C51E",
"5  c #66CA19",
"6  c #6ACC1A",
"7  c #6AC623",
"8  c #69CB2A",
"9  c #ADFF4C",
"0  c #B3FF4E",
"q  c #B8FE4A",
"w  c #AFFC54",
"e  c #AEFD5B",
"r  c #B6F752",
"t  c #B6FA51",
"y  c #B3FF50",
"u  c #B2FF51",
"i  c #B1FD53",
"p  c #B0FE52",
"a  c #B2FF53",
"s  c #B3FF53",
"d  c #B4FC50",
"f  c #B5FF50",
"g  c #B4FE51",
"h  c #B5FD53",
"j  c #B7FF52",
"k  c #B6FF53",
"l  c #B3FA54",
"z  c #B0FB56",
"x  c #B7FB56",
"c  c #B0FC54",
"v  c #B1FD55",
"b  c #B0FF54",
"n  c #B1FF55",
"m  c #B3FF54",
"M  c #B2FF55",
"N  c #B3FF55",
"B  c #B1FF57",
"V  c #B2FF57",
"C  c #B3FF57",
"Z  c #B5FC54",
"A  c #B7FC54",
"S  c #B4FF54",
"D  c #B5FE55",
"F  c #B7FF54",
"G  c #B5FC56",
"H  c #B4FD56",
"J  c #B6FD57",
"K  c #B4FF56",
"L  c #B5FE57",
"P  c #B2F953",
"I  c #BCFB52",
"U  c #BCFF51",
"Y  c #BAFC54",
"T  c #B8FF57",
"R  c #BAFF57",
"E  c #B7FB5A",
"W  c #B0FD59",
"Q  c #B3FE59",
"!  c #B1FE5A",
"~  c #B3FF5B",
"^  c #B6FD59",
"/  c #B7FF59",
"(  c #B4FC5A",
")  c #B6FC5B",
"_  c #B4FF5A",
"`  c #B7FE5A",
"'  c #B6FF5A",
"]  c #B7FF5B",
"[  c #B2FD5C",
"{  c #B2FC5F",
"}  c #B2FE5E",
"|  c #B7FD5C",
" . c #B6FE5C",
".. c #B8FA5A",
"X. c #B9FF58",
"o. c #B8FF59",
"O. c #B9FD5A",
"+. c #BAFC5A",
"@. c #BAFE5B",
"#. c #BAFF5B",
"$. c #BCFD59",
"%. c #BCFD5B",
"&. c #B8FA5C",
"*. c #B9FD5C",
"=. c #BAFC5C",
"-. c #AEFF60",
";. c #AEFE61",
":. c #AFFF61",
">. c #B1FE60",
",. c #B2FF61",
"<. c #B2FD62",
"1. c #B1FF62",
"2. c #B5FF62",
"3. c #B1FC64",
"4. c #B3FC64",
"5. c #B2FF65",
"6. c #B0FF66",
"7. c #B5FE66",
"8. c #BDFF62",
"9. c #B8FD64",
"0. c #B1FB6A",
"q. c #B3FD6A",
"w. c #B8FD6E",
/* pixels */
"/ D j j j D v v #.D 0 0 j T / / / D j j j D v v #.D 0 0 j T / | ",
"t #.w Q D D i D D D / v D j z / P #.w Q D D i D D D / v D j z / ",
"I E + o 2.D j 0 0 z O + w 0 T $.T E + o 2.D j 0 0 z O + w 0 T $.",
"&.9.  o q.{ D 0 v 5.. . ,.w D r ..9.  o q.{ D 0 v 5.. . ,.w D r ",
". . ,.5.  o v #.O . w.0.. o D #.. . ,.5.  o v #.O . w.0.. o D U ",
".   e w X o ,.e o o e -.  o Q Q o   e w X o ,.e o o e -.  o Q 0 ",
"  o 3 = = , X o 4 2 - < X   -.5.. o 3 = = , X o 4 2 - < X   -.v ",
".   7 1 $ = X X 4 1 $ 5 X X -.,..   7 1 $ = X X 4 1 $ 5 X X -.v ",
"{ 5.o X 5 = , 7 o X 1 5 X . 8.t / 5.o X 5 = , 7 o X 1 5 X . 8.q ",
"0 Q . o , = 2 4   X 5 3   O w q 0 Q . o , = 2 4   X 5 3   O w q ",
"% < o   6 > & 3 X X , 5 o . 2 # % < o X 6 > & 3 X X , 5 o . 2 # ",
"$ 1 X X 3 2 = 6 X X 8 7     = ; $ 1 X X 3 2 = 6 X X 8 7     = ; ",
": @ 6 7 X X 2 ,   X   X 7 6 = @ : @ 6 7 X X 2 ,   X   X 7 6 = = ",
"= = = , X X 4 7 X X   X 1 $ 2 = = = = , X X 4 7 X X   X 1 $ 2 1 ",
"i 9 - = , 7 X X   X 4 2 $ $ v v v 9 - = , 7 X X   X 4 2 $ $ v v ",
"D i * - * < o .   X * # - - i #.x i * - * < o .   X * # - - i *.",
"#.v i 9 0 v { ,.7.{ 9 0 9 D D / #.v i 9 0 v { ,.7.{ 9 0 9 D D | ",
"t #.w Q D D i D D D / v T j z / P #.w Q D D i D D D / v T j z / ",
"I / + o 2.D j 0 0 z O + w 0 T $.T E + o 2.D j 0 0 z O + w 0 T $.",
"..9.  o q.{ D 0 v 5.. . ,.w D r ..9.  o q.{ D 0 v 5.. . ,.w D r ",
". . ,.5.  o v #.O . w.0.. o D #.. . ,.5.  o v #.O . w.0.. o D U ",
".   e w X o ,.e o o e -.  o Q Q o   e w X o ,.e o o e -.  o Q 0 ",
"  o 3 = = , X o 4 2 - < X   -.5.. o 3 = = , X o 4 2 - < X   -.v ",
".   7 1 $ = X X 4 1 $ 5 X X -.,..   7 1 $ = X X 4 1 $ 5 X X -.v ",
"{ 5.o X 5 = , 7 o X 1 5 X . 8.t / 5.o X 5 = , 7 o X 1 5 X . 8.q ",
"0 Q . o , = 2 4   X 5 3   O w q 0 Q . o , = 2 4   X 5 3   O w q ",
"% < o   6 > & 3 X X , 5 o . 2 # % < o   6 > & 3 X X , 5 o . 2 # ",
"$ 1 X X 3 2 = 6 X X 8 7     = ; $ 1 X X 3 2 = 6 X X 8 7     = ; ",
": @ 6 7 X X 2 ,   X   X 7 6 = @ : @ 6 7 X X 2 ,   X   X 7 6 = = ",
"= = = , X X 4 7 X X   X 1 $ 2 = = = = , X X 4 7 X X   X 1 $ 2 1 ",
"i 9 - = , 7 X X   X 4 2 $ $ i v v 9 = = , 7 X X   X 4 2 $ $ i v ",
"D i $ $ $ , o     X < $ ; - i #.x i $ $ $ , o     X < $ ; - i #."
};
