/* XPM */
static char *_fcac4d336a24b41dbceff2c6365fcdbHx1SkPFQb1FVXb6U[] = {
/* columns rows colors chars-per-pixel */
"32 32 187 2 ",
"   c #020201",
".  c #0B0100",
"X  c #000A00",
"o  c #02020A",
"O  c #0A000F",
"+  c #130000",
"@  c #1C0000",
"#  c #001200",
"$  c #001A00",
"%  c #230000",
"&  c #2A0000",
"*  c #320000",
"=  c #3D0000",
"-  c #1D7C00",
";  c #256E00",
":  c #2B6F01",
">  c #2F6B09",
",  c #326D05",
"<  c #336D0B",
"1  c #257300",
"2  c #2C7401",
"3  c #247B00",
"4  c #2B7A00",
"5  c #2F720B",
"6  c #317103",
"7  c #327900",
"8  c #337008",
"9  c #2E6C17",
"0  c #356C15",
"q  c #3D651D",
"w  c #346B17",
"e  c #3B6323",
"r  c #3C6829",
"t  c #42611E",
"y  c #446321",
"u  c #DE3E1E",
"i  c #E63E06",
"p  c #EC3C0D",
"a  c #F53504",
"s  c #FB3605",
"d  c #F33801",
"f  c #FB3A06",
"g  c #F7360A",
"h  c #FC340D",
"j  c #F53909",
"k  c #FB3A0C",
"l  c #EE3B11",
"z  c #FD3710",
"x  c #F73C11",
"c  c #D93F23",
"v  c #B75129",
"b  c #BA522E",
"n  c #BD4D32",
"m  c #BC4C3C",
"M  c #BA5234",
"N  c #B85239",
"B  c #B75532",
"V  c #CE460C",
"C  c #D2480E",
"Z  c #CB4C1B",
"A  c #CF451A",
"S  c #DD4016",
"D  c #D94B13",
"F  c #D5441E",
"G  c #DC411C",
"H  c #D14B1E",
"J  c #D64913",
"K  c #CC501D",
"L  c #E4420B",
"P  c #EA420D",
"I  c #E94307",
"U  c #E84312",
"Y  c #E2441B",
"T  c #E64415",
"R  c #C94925",
"E  c #CE4C28",
"W  c #C94728",
"Q  c #D44422",
"!  c #D94523",
"~  c #D44821",
"^  c #DA4926",
"/  c #D64428",
"(  c #DA452A",
")  c #C55025",
"_  c #C2502B",
"`  c #C34C35",
"'  c #E24323",
"]  c #6BBF29",
"[  c #76BF2E",
"{  c #73BE35",
"}  c #71BD39",
"|  c #5FCA02",
" . c #61C703",
".. c #63CB04",
"X. c #63C70F",
"o. c #64CA0A",
"O. c #6ACC0C",
"+. c #70CB0C",
"@. c #65D206",
"#. c #66C716",
"$. c #66CA13",
"%. c #6ACC14",
"&. c #6AC41B",
"*. c #6BCD1C",
"=. c #6CC617",
"-. c #6CC324",
";. c #6CC925",
":. c #71C228",
">. c #7CB64C",
",. c #DF823F",
"<. c #FF802D",
"1. c #D58D5E",
"2. c #E58648",
"3. c #E28043",
"4. c #FF8A47",
"5. c #FF8C4D",
"6. c #F6954D",
"7. c #FF914C",
"8. c #F6994D",
"9. c #F9994D",
"0. c #FF8D53",
"q. c #EE9652",
"w. c #E19C5F",
"e. c #EC9B5D",
"r. c #EA9957",
"t. c #F59653",
"y. c #FC9452",
"u. c #F49A54",
"i. c #FB9952",
"p. c #F2955C",
"a. c #F59958",
"s. c #FD9A5D",
"d. c #F9975A",
"f. c #DB9D6A",
"g. c #D69F76",
"h. c #DC9F74",
"j. c #D49E7D",
"k. c #D99D7B",
"l. c #E39C64",
"z. c #EB9B64",
"x. c #E39D6A",
"c. c #E99D69",
"v. c #F39563",
"b. c #FF9764",
"n. c #F29A65",
"m. c #FA9867",
"M. c #F39769",
"N. c #E99F70",
"B. c #DCA46D",
"V. c #CDA574",
"C. c #D4A374",
"Z. c #DAA07A",
"A. c #D7A579",
"S. c #EDA161",
"D. c #E4A369",
"F. c #E0A175",
"G. c #AEFF4E",
"H. c #B2FE4D",
"J. c #B9FE4E",
"K. c #ADFE52",
"L. c #AEFD5C",
"P. c #B4FE54",
"I. c #B9FD52",
"U. c #B6F75B",
"Y. c #B5FE5A",
"T. c #B2FE5E",
"R. c #B4FD5B",
"E. c #BBFD5C",
"W. c #ACFA63",
"Q. c #B2FE61",
"!. c #B3FB63",
"~. c #B6F56B",
"^. c #BBF56D",
"/. c #B4FA6A",
"(. c #BCF96A",
"). c #B7F674",
"_. c #BDF472",
"`. c #B4FF71",
"'. c #BAFA72",
"]. c #BEFA79",
"[. c #C0F370",
"{. c #C0FA72",
"}. c #BFE784",
"|. c #BCF980",
" X c #C6E986",
".X c #CBEB82",
"XX c #C5EF89",
/* pixels */
"I.J.H.H.I.I.E.I.H.{.X o O o o X         . X ].K.Y.I.J.H.J.H.J.I.",
"I.P.R.P.P.I.P.E.(..X+ & & % % % % % % % % @  X'.U.I.Y.Y.P.H.I.J.",
"P.L.4 4 P.H.H.~.$ + v ~ Q Q ! u c ( ~ A / b + $ (.E.2 2 Q.P.H.H.",
"Q.`.1 4 L.R./. X+ = G j j j s s h h j j k G = . .X^.: 4 W.T.P.P.",
"2 ; `.W.4 6 # + N F l j g f s s h h x j j l u b + $ ^.Q.2 2 Q.Y.",
"8 7 W.L.4 5 X % / g z k g p Y ! ! ! j d f k j / % X ~.L.4 7 !.Y.",
"2 1 =.O.X.} X % u f a k h ' = % % = Y f f a k Q % # { &.3 ; /.P.",
"2 4 &.=.:.>.X % ( g k x ! ` @     @ ` S j f s ^ % X >.} 1 7 L.P.",
"Q.W.4 6 X X   % ~ d f u = + .     . @ = S f a ~ %   X X , 6 T.I.",
"K.W.1 0 X   . @ M ~ F _ * % % % % % % * ` F ~ M @ o . X < ; T.G.",
"..#.3 w X o o . @ % % * _ F ~ ~ ~ ~ W ` * % @ @ . o   X 0 4 #.X.",
"..*.1 e   + . . . + + & K I P i i P U E & + + . . . +   q 1 ;...",
"..-.$   C.B.+ . Z.c.D.z.0.0.4.7.7.4.0.0.z.c.D.k.. + j.A.X $ ]  .",
"+.[ # . l.e.@ % p.6.8.q.z.M.t.9.9.6.n.z.q.9.6.z.% % c.x.+ $ [ O.",
"J._.X + l.u.l.z.d.y.8.S.% % z.6.t.z.% % S.9.9.u.e.z.e.f.+ X ^.H.",
"E.[.X . C.x.f.z.a.y.8.w.@ + l.u.u.x.+ + w.8.i.q.e.l.B.C.X X [.J.",
"Y.U.(..X  + + @ z.6.6.c.+ @ B.u.u.f.+ @ c.i.t.l.@ + + .  X^.E.J.",
"P.E.U._.$ X X . C.c.a.z.& & p.7.5.n.% & e.u.c.C.. X X X '.P.H.H.",
"Y.Q.4 2 ^.XXX   . % z.t.e.s.D P L J b.p.9.r.% +   X r , !.I.H.H.",
"T./.1 2 ). XX   + & m.0.p.p.R Q ~ R v.p.7.d.& +   X e , /.P.H.H.",
"2 7 !.^.# X   + g.p.V Z * @ % @ @ % + * Z C m.k.+   X # , 7 R.P.",
"2 : _..X. + + @ h.a.C Z & + @ % % @ + & Z J v.h.@ @ + . t , /.Y.",
"3 8 X . B.l.c.F.@ % p.y.z.v.R / / W M.v.0.p.% @ h.c.c.A.. # ^.K.",
"1 < X + D.8.6.l.+ + z.7.0.0.L p P L 0.0.5.n.+ . l.9.6.l.+ X ).K.",
"W.].X + c.i.t.N.. @ ) L p T 5.5.0.4.U p L ) @ + c.9.8.D.@ X ].K.",
"K./.$   A.c.x.j.. + B ~ Q W v.l.z.v.R ~ ~ N @ . C.w.D.C.. # ~.K.",
"$.&.2 e   + @ + . . @ @ % % + + + + @ % % @ + . + + +   q 2 &.O.",
"O.*.3 5 # X o . % & % @             o . @ % & % .   X # 1 - %.O.",
" . .*.-.< e   @ ` ! c m @     X     o @ n Q F n @ X e 2 -.%...o.",
"O.O...*.3 8 # + b ! ( m @ . + + + + . @ n ! Q M + X 6 - %...O.%.",
"K.P. ...O.:.: y + @ % @ . + w.2.2.1.+ . @ % % + y : ;.%... .P.K.",
"T.K.O.@.| $.1 0 X X       @ 8.<.^ ,.@ X   o o X 9 3 $.| @.o.G.R."
};
