/* XPM */
static char *_ad8aac83f494810ab7dbc5fc536303dfTicC149vkcXvPlN[] = {
/* columns rows colors chars-per-pixel */
"32 32 193 2 ",
"   c #2E3F1A",
".  c #293E13",
"X  c #333E1D",
"o  c #2C3E23",
"O  c #313D25",
"+  c #343D2C",
"@  c #393D2F",
"#  c #343B33",
"$  c #3A3D33",
"%  c #363B3D",
"&  c #3E3F3A",
"*  c #1E4C03",
"=  c #1D5400",
"-  c #1B5900",
";  c #1C4E13",
":  c #234700",
">  c #2B4605",
",  c #244D03",
"<  c #2B4B03",
"1  c #25470D",
"2  c #2B460C",
"3  c #254C0B",
"4  c #2B4A0C",
"5  c #304701",
"6  c #344A09",
"7  c #235202",
"8  c #2A5302",
"9  c #275800",
"0  c #25510C",
"q  c #29500F",
"w  c #2B4614",
"e  c #244C14",
"r  c #2B4B13",
"t  c #25471B",
"y  c #2B441C",
"u  c #244C1C",
"i  c #2C4A1B",
"p  c #244614",
"a  c #32431C",
"s  c #314A1D",
"d  c #324715",
"f  c #285213",
"g  c #2C6E02",
"h  c #2F670C",
"j  c #2D6D0B",
"k  c #336E04",
"l  c #316B0D",
"z  c #267600",
"x  c #2B7301",
"c  c #267A00",
"v  c #2A7A00",
"b  c #257208",
"n  c #2B720A",
"m  c #327403",
"M  c #317900",
"N  c #31720B",
"B  c #38720E",
"V  c #387204",
"C  c #2E6E1A",
"Z  c #336513",
"A  c #3A6712",
"S  c #346B13",
"D  c #396B14",
"F  c #36661A",
"G  c #3A651D",
"H  c #346A1B",
"J  c #396A1A",
"K  c #2D4323",
"L  c #2D4921",
"P  c #2D4328",
"I  c #324324",
"U  c #324A24",
"Y  c #33422A",
"T  c #38422C",
"R  c #374629",
"E  c #3B5E2C",
"W  c #395D2A",
"Q  c #324033",
"!  c #384031",
"~  c #3F5F30",
"^  c #366324",
"/  c #3B6324",
"(  c #336822",
")  c #3A6822",
"_  c #37632A",
"`  c #3C632B",
"'  c #425E26",
"]  c #425E2E",
"[  c #465D31",
"{  c #416425",
"}  c #44632A",
"|  c #426131",
" . c #486233",
".. c #288300",
"X. c #6ABE12",
"o. c #70BD15",
"O. c #6DBF25",
"+. c #6DBC2B",
"@. c #62BE2B",
"#. c #74BC23",
"$. c #73BD2C",
"%. c #6DBC34",
"&. c #6CBE3B",
"*. c #73BC34",
"=. c #7BBC33",
"-. c #75B339",
";. c #7EB63C",
":. c #74BA3C",
">. c #78BE39",
",. c #6DC607",
"<. c #67C807",
"1. c #66C30C",
"2. c #6CC50D",
"3. c #67C809",
"4. c #6DC90C",
"5. c #67C705",
"6. c #71C50E",
"7. c #73CA0A",
"8. c #66C114",
"9. c #6CC514",
"0. c #6DC914",
"q. c #6CC41B",
"w. c #6ACA1B",
"e. c #66CA1C",
"r. c #70C313",
"t. c #72C914",
"y. c #73C31C",
"u. c #73CE19",
"i. c #6CC323",
"p. c #68C820",
"a. c #6BC22D",
"s. c #65C328",
"d. c #72C325",
"f. c #71C22A",
"g. c #6DC436",
"h. c #6EC139",
"j. c #73C233",
"k. c #77C03C",
"l. c #74B544",
"z. c #79B646",
"x. c #72BB42",
"c. c #7ABA45",
"v. c #77B64B",
"b. c #7AB449",
"n. c #7AB94B",
"m. c #7DB453",
"M. c #70C141",
"N. c #80B839",
"B. c #ABFF3C",
"V. c #82AF48",
"C. c #81B843",
"Z. c #89B34F",
"A. c #80B34A",
"S. c #ABFF45",
"D. c #A6FF4C",
"F. c #ABFE4C",
"G. c #B4FF4B",
"H. c #ACF756",
"J. c #A7FF52",
"K. c #ACFE53",
"L. c #A7FE59",
"P. c #ACFE5A",
"I. c #B1FF53",
"U. c #B2FD5B",
"Y. c #AEFC63",
"T. c #AFF76B",
"R. c #ADF868",
"E. c #AFF463",
"W. c #B1F667",
"Q. c #B1FF64",
"!. c #B4F66F",
"~. c #BAF76E",
"^. c #B3FC6A",
"/. c #B8FE68",
"(. c #B9FA62",
"). c #B7ED71",
"_. c #B5F771",
"`. c #B4F574",
"'. c #BAF475",
"]. c #B5F974",
"[. c #BFFC71",
"{. c #B2F778",
"}. c #BAF37A",
"|. c #BAFB79",
" X c #C0F17B",
".X c #BAEE80",
"XX c #BEEF8C",
"oX c #BDF184",
"OX c #BDF38C",
"+X c #CAED8F",
"@X c #C2ED88",
"#X c #C1F080",
"$X c #C2F388",
/* pixels */
"4.4.F.F.0.w.U.P.i.i.W.oX2 y O Y I 4 OX!.#.y.K.P.9.3.I.G.7.4.I.I.",
"<.4.F.K.q.i.W.!.>.:.}.$X< 4 2 > 2 < XXoXN.=.~.W.i.t.F.G.6.,.I.K.",
"S.F.0.i.Q._.9 , , < < < #X X;.N. X X< 5 > < < 7 `.Y.y.0.F.J.2.4.",
"S.F.d.f.).}., < d 4 < , [.U.y.o.U.~.< 6 a a 6 < XX`.i.8.P.K.4.<.",
"6.d.v g 7 8 V.Z.< < z.j.q.4.F.F.0.d.).+X> r G A 3 , !.P.X.2.S.B.",
"o.o.M m , : C.;.7 7 *.q.3.5.S.F.w.o./.}.7 , l S 4 : |.P.q.2.S.B.",
"U.U.$.-., 7 :.*.:.>.O.q.P.F.5.<.D.P.X.f.x n :.z.0 , =.y.K.F.3.,.",
"P.Q.=.c.= = l.*.%.%.>.$.H.J.1.0.J.J.q.O.v z :.b., 7 b.*.K.D.t.9.",
"e.a.= 7 n.z.7 = l n = = +.q.P.P.0.p.v z :.:.= 0 A A 0 = i.u.S.I.",
"w.*.7 0 l.c.= = h S 7 = >.+._._.a.a.m N :.x.7 , A A p 7 *.X.I.F.",
"H.'.< w S v &.x.7 7 -.>.x m 7 7 V k = = j x j C S F i 1 }.U.9.r.",
"(.'.6 d ^ j M.h.- = j.j.v x = , k k , e H S j j J } y w oX^.q.9.",
"#.;.2 a i 3 n v g.j.c c g.*.m m :.&.j ) 1 3 S l 3 a X w D g Y.P.",
"z.A.8 1 i * N v g.@...c %.%.x g g.x.l ) i r H H 4 a X w ) B T.P.",
"2 : b.n.g g >.%.c c s.s.z n 7 , l h 3 3 W ` e r W W L U w < $.q.",
"I d m.z.v x :.%.z z h.&.n H 1 r { G 3 f ( ( i p / / r a I > =.9.",
"# o i , l x x v z z z x = 0 G ^ r p / ) e e ^ { e e ^ { a 5 '.K.",
"$ + I w ) H D N n n x j 7 0 S H 4 r _ ^ e f / / 3 q G / d 2 _.U.",
"I a [ ] y t p 4 Z S n j S h b b S G e u ^ ^ u u ) Z J ) p 0 *.q.",
"4 w ' | P P K r ) H S j S S C b H ) p p ` ` u t ^ G ) ) 0 = a.9.",
"S D 1 . R o ~ ` 3 , H H , 3 H ( ; e _ ` w a | E r p r 2 m.:.P.I.",
"x l 4 a y i W ` 4 3 ^ ` i a ~ W u u E ] X y [ } i w a < :.i.K.F.",
"{.OX2 d } / K t ^ / i K o O Y K ( / w a T + P y W } d < ].L.0.9.",
"Q.'.< > G ^ K P ` ` y P T # Y P | ' I + + # # P ' ' < 7 T.P.t.2.",
"q.d.`.OX1 y # + I y ` ~ O # Y P Y O + # % % % Q y e A x i.0.J.I.",
"2.9.L.{., s + $ + I E ~ T + I K U Y + # % % % P L * N c q.9.K.K.",
"I.J.q.j.k G X + @ @ Y Y O   / ( Z / O & # # ! K ^ l *.o.I.I.2.t.",
"F.F.0.q.v k 3 w K P O Y a 4 l x x l w O + + U r S m $.y.U.I.r.r.",
"4.4.D.P.q.a.x S H _ t y ^ j x.:.g.x.S { a y ^ H N x Q.Q.x M P.F.",
"7.4.D.D.u.9.c z b C e r ^ Z v.:.l.n.D G r e H N m v Q.Y.v v P.F.",
"F.F.9.t.F.K.p.a.z j H / y U 2 4 d p i 1 G S j v T.Q.q.q.P.P.t.,.",
"I.I.2.r.I.K.8.p.v n A / R o T a + !   i H N n z ^.I.0.1.P.F.t.6."
};
